# xmcd
#
# Track frame offsets: 
#        150
#        6317
#        24202
#        36702
#        59255
#        62870
#        79212
#        96997
#        101002
#        114160
#        127359
#        140634
#        154695
#        169520
#        171997
#        192505
#        209310
#        228070
#        246727
#
# Disc length: 4283 seconds
#
# Revision: 3
# Processed by: cddbd v1.5.2PL0 Copyright (c) Steve Scherf et al.
# Submitted via: ExactAudioCopyFreeDBPlugin 1.0
#
DISCID=1410b913
DTITLE=Gris - Kunststück
DYEAR=2005
DGENRE=Hip-Hop
TTITLE0=Intro: bei der Macht
TTITLE1=Wie gehts
TTITLE2=U.O
TTITLE3=Antiheldenhelden feat. Estess
TTITLE4=Windowsskit
TTITLE5=Couch feat. Meyah Don
TTITLE6=Zu Hause verreisen 2
TTITLE7=Royskit
TTITLE8=Katamaran
TTITLE9=Freie Vögel feat. Phase
TTITLE10=Gee-Dog Skit
TTITLE11=Ozeanriesen feat. Wakka
TTITLE12=Wattn Ditte
TTITLE13=Filmskit
TTITLE14=Shitfuck feat. Bobafetth
TTITLE15=Üble Wurzeln
TTITLE16=Aggrisiv
TTITLE17=Durch
TTITLE18=Outro: alles wird gut
EXTD=
EXTT0=
EXTT1=
EXTT2=
EXTT3=
EXTT4=
EXTT5=
EXTT6=
EXTT7=
EXTT8=
EXTT9=
EXTT10=
EXTT11=
EXTT12=
EXTT13=
EXTT14=
EXTT15=
EXTT16=
EXTT17=
EXTT18=
PLAYORDER=
